<?xml version="1.0" encoding="utf-8" standalone="no"?>
<!DOCTYPE svg PUBLIC "-//W3C//DTD SVG 1.1//EN"
  "http://www.w3.org/Graphics/SVG/1.1/DTD/svg11.dtd">
<svg xmlns:xlink="http://www.w3.org/1999/xlink" width="720pt" height="432pt" viewBox="0 0 720 432" xmlns="http://www.w3.org/2000/svg" version="1.1">
 <metadata>
  <rdf:RDF xmlns:dc="http://purl.org/dc/elements/1.1/" xmlns:cc="http://creativecommons.org/ns#" xmlns:rdf="http://www.w3.org/1999/02/22-rdf-syntax-ns#">
   <cc:Work>
    <dc:type rdf:resource="http://purl.org/dc/dcmitype/StillImage"/>
    <dc:date>2025-01-28T14:40:02.990056</dc:date>
    <dc:format>image/svg+xml</dc:format>
    <dc:creator>
     <cc:Agent>
      <dc:title>Matplotlib v3.9.2, https://matplotlib.org/</dc:title>
     </cc:Agent>
    </dc:creator>
   </cc:Work>
  </rdf:RDF>
 </metadata>
 <defs>
  <style type="text/css">*{stroke-linejoin: round; stroke-linecap: butt}</style>
 </defs>
 <g id="figure_1">
  <g id="patch_1">
   <path d="M 0 432 
L 720 432 
L 720 0 
L 0 0 
z
" style="fill: #ffffff"/>
  </g>
  <g id="axes_1">
   <g id="patch_2">
    <path d="M 90 384.48 
L 648 384.48 
L 648 51.84 
L 90 51.84 
z
" style="fill: #ffffff"/>
   </g>
   <g id="matplotlib.axis_1">
    <g id="xtick_1">
     <g id="text_1">
      <!-- du/dt -->
      <g style="fill: #262626" transform="translate(170.768516 401.853594) scale(0.11 -0.11)">
       <defs>
        <path id="ArialMT-64" d="M 2575 0 
L 2575 419 
Q 2259 -75 1647 -75 
Q 1250 -75 917 144 
Q 584 363 401 755 
Q 219 1147 219 1656 
Q 219 2153 384 2558 
Q 550 2963 881 3178 
Q 1213 3394 1622 3394 
Q 1922 3394 2156 3267 
Q 2391 3141 2538 2938 
L 2538 4581 
L 3097 4581 
L 3097 0 
L 2575 0 
z
M 797 1656 
Q 797 1019 1065 703 
Q 1334 388 1700 388 
Q 2069 388 2326 689 
Q 2584 991 2584 1609 
Q 2584 2291 2321 2609 
Q 2059 2928 1675 2928 
Q 1300 2928 1048 2622 
Q 797 2316 797 1656 
z
" transform="scale(0.015625)"/>
        <path id="ArialMT-75" d="M 2597 0 
L 2597 488 
Q 2209 -75 1544 -75 
Q 1250 -75 995 37 
Q 741 150 617 320 
Q 494 491 444 738 
Q 409 903 409 1263 
L 409 3319 
L 972 3319 
L 972 1478 
Q 972 1038 1006 884 
Q 1059 663 1231 536 
Q 1403 409 1656 409 
Q 1909 409 2131 539 
Q 2353 669 2445 892 
Q 2538 1116 2538 1541 
L 2538 3319 
L 3100 3319 
L 3100 0 
L 2597 0 
z
" transform="scale(0.015625)"/>
        <path id="ArialMT-2f" d="M 0 -78 
L 1328 4659 
L 1778 4659 
L 453 -78 
L 0 -78 
z
" transform="scale(0.015625)"/>
        <path id="ArialMT-74" d="M 1650 503 
L 1731 6 
Q 1494 -44 1306 -44 
Q 1000 -44 831 53 
Q 663 150 594 308 
Q 525 466 525 972 
L 525 2881 
L 113 2881 
L 113 3319 
L 525 3319 
L 525 4141 
L 1084 4478 
L 1084 3319 
L 1650 3319 
L 1650 2881 
L 1084 2881 
L 1084 941 
Q 1084 700 1114 631 
Q 1144 563 1211 522 
Q 1278 481 1403 481 
Q 1497 481 1650 503 
z
" transform="scale(0.015625)"/>
       </defs>
       <use xlink:href="#ArialMT-64"/>
       <use xlink:href="#ArialMT-75" x="55.615234"/>
       <use xlink:href="#ArialMT-2f" x="111.230469"/>
       <use xlink:href="#ArialMT-64" x="139.013672"/>
       <use xlink:href="#ArialMT-74" x="194.628906"/>
      </g>
     </g>
    </g>
    <g id="xtick_2">
     <g id="text_2">
      <!-- u*du/dx -->
      <g style="fill: #262626" transform="translate(350.347266 401.853594) scale(0.11 -0.11)">
       <defs>
        <path id="ArialMT-2a" d="M 200 3741 
L 344 4184 
Q 841 4009 1066 3881 
Q 1006 4447 1003 4659 
L 1456 4659 
Q 1447 4350 1384 3884 
Q 1706 4047 2122 4184 
L 2266 3741 
Q 1869 3609 1488 3566 
Q 1678 3400 2025 2975 
L 1650 2709 
Q 1469 2956 1222 3381 
Q 991 2941 816 2709 
L 447 2975 
Q 809 3422 966 3566 
Q 563 3644 200 3741 
z
" transform="scale(0.015625)"/>
        <path id="ArialMT-78" d="M 47 0 
L 1259 1725 
L 138 3319 
L 841 3319 
L 1350 2541 
Q 1494 2319 1581 2169 
Q 1719 2375 1834 2534 
L 2394 3319 
L 3066 3319 
L 1919 1756 
L 3153 0 
L 2463 0 
L 1781 1031 
L 1600 1309 
L 728 0 
L 47 0 
z
" transform="scale(0.015625)"/>
       </defs>
       <use xlink:href="#ArialMT-75"/>
       <use xlink:href="#ArialMT-2a" x="55.615234"/>
       <use xlink:href="#ArialMT-64" x="94.53125"/>
       <use xlink:href="#ArialMT-75" x="150.146484"/>
       <use xlink:href="#ArialMT-2f" x="205.761719"/>
       <use xlink:href="#ArialMT-64" x="233.544922"/>
       <use xlink:href="#ArialMT-78" x="289.160156"/>
      </g>
     </g>
    </g>
    <g id="xtick_3">
     <g id="text_3">
      <!-- d^3u/dx^3 -->
      <g style="fill: #262626" transform="translate(530.268047 401.853594) scale(0.11 -0.11)">
       <defs>
        <path id="ArialMT-5e" d="M 747 2156 
L 169 2156 
L 1272 4659 
L 1725 4659 
L 2834 2156 
L 2269 2156 
L 1497 4022 
L 747 2156 
z
" transform="scale(0.015625)"/>
        <path id="ArialMT-33" d="M 269 1209 
L 831 1284 
Q 928 806 1161 595 
Q 1394 384 1728 384 
Q 2125 384 2398 659 
Q 2672 934 2672 1341 
Q 2672 1728 2419 1979 
Q 2166 2231 1775 2231 
Q 1616 2231 1378 2169 
L 1441 2663 
Q 1497 2656 1531 2656 
Q 1891 2656 2178 2843 
Q 2466 3031 2466 3422 
Q 2466 3731 2256 3934 
Q 2047 4138 1716 4138 
Q 1388 4138 1169 3931 
Q 950 3725 888 3313 
L 325 3413 
Q 428 3978 793 4289 
Q 1159 4600 1703 4600 
Q 2078 4600 2393 4439 
Q 2709 4278 2876 4000 
Q 3044 3722 3044 3409 
Q 3044 3113 2884 2869 
Q 2725 2625 2413 2481 
Q 2819 2388 3044 2092 
Q 3269 1797 3269 1353 
Q 3269 753 2831 336 
Q 2394 -81 1725 -81 
Q 1122 -81 723 278 
Q 325 638 269 1209 
z
" transform="scale(0.015625)"/>
       </defs>
       <use xlink:href="#ArialMT-64"/>
       <use xlink:href="#ArialMT-5e" x="55.615234"/>
       <use xlink:href="#ArialMT-33" x="102.539062"/>
       <use xlink:href="#ArialMT-75" x="158.154297"/>
       <use xlink:href="#ArialMT-2f" x="213.769531"/>
       <use xlink:href="#ArialMT-64" x="241.552734"/>
       <use xlink:href="#ArialMT-78" x="297.167969"/>
       <use xlink:href="#ArialMT-5e" x="347.167969"/>
       <use xlink:href="#ArialMT-33" x="394.091797"/>
      </g>
     </g>
    </g>
    <g id="text_4">
     <!-- Term -->
     <g style="fill: #262626" transform="translate(355.670625 416.629219) scale(0.12 -0.12)">
      <defs>
       <path id="ArialMT-54" d="M 1659 0 
L 1659 4041 
L 150 4041 
L 150 4581 
L 3781 4581 
L 3781 4041 
L 2266 4041 
L 2266 0 
L 1659 0 
z
" transform="scale(0.015625)"/>
       <path id="ArialMT-65" d="M 2694 1069 
L 3275 997 
Q 3138 488 2766 206 
Q 2394 -75 1816 -75 
Q 1088 -75 661 373 
Q 234 822 234 1631 
Q 234 2469 665 2931 
Q 1097 3394 1784 3394 
Q 2450 3394 2872 2941 
Q 3294 2488 3294 1666 
Q 3294 1616 3291 1516 
L 816 1516 
Q 847 969 1125 678 
Q 1403 388 1819 388 
Q 2128 388 2347 550 
Q 2566 713 2694 1069 
z
M 847 1978 
L 2700 1978 
Q 2663 2397 2488 2606 
Q 2219 2931 1791 2931 
Q 1403 2931 1139 2672 
Q 875 2413 847 1978 
z
" transform="scale(0.015625)"/>
       <path id="ArialMT-72" d="M 416 0 
L 416 3319 
L 922 3319 
L 922 2816 
Q 1116 3169 1280 3281 
Q 1444 3394 1641 3394 
Q 1925 3394 2219 3213 
L 2025 2691 
Q 1819 2813 1613 2813 
Q 1428 2813 1281 2702 
Q 1134 2591 1072 2394 
Q 978 2094 978 1738 
L 978 0 
L 416 0 
z
" transform="scale(0.015625)"/>
       <path id="ArialMT-6d" d="M 422 0 
L 422 3319 
L 925 3319 
L 925 2853 
Q 1081 3097 1340 3245 
Q 1600 3394 1931 3394 
Q 2300 3394 2536 3241 
Q 2772 3088 2869 2813 
Q 3263 3394 3894 3394 
Q 4388 3394 4653 3120 
Q 4919 2847 4919 2278 
L 4919 0 
L 4359 0 
L 4359 2091 
Q 4359 2428 4304 2576 
Q 4250 2725 4106 2815 
Q 3963 2906 3769 2906 
Q 3419 2906 3187 2673 
Q 2956 2441 2956 1928 
L 2956 0 
L 2394 0 
L 2394 2156 
Q 2394 2531 2256 2718 
Q 2119 2906 1806 2906 
Q 1569 2906 1367 2781 
Q 1166 2656 1075 2415 
Q 984 2175 984 1722 
L 984 0 
L 422 0 
z
" transform="scale(0.015625)"/>
      </defs>
      <use xlink:href="#ArialMT-54"/>
      <use xlink:href="#ArialMT-65" x="49.958984"/>
      <use xlink:href="#ArialMT-72" x="105.574219"/>
      <use xlink:href="#ArialMT-6d" x="138.875"/>
     </g>
    </g>
   </g>
   <g id="matplotlib.axis_2">
    <g id="ytick_1">
     <g id="line2d_1">
      <path d="M 90 357.219 
L 648 357.219 
" clip-path="url(#pbd9bce9780)" style="fill: none; stroke: #cccccc; stroke-linecap: round"/>
     </g>
     <g id="text_5">
      <!-- −2.0 -->
      <g style="fill: #262626" transform="translate(58.785313 361.155797) scale(0.11 -0.11)">
       <defs>
        <path id="ArialMT-2212" d="M 3381 1997 
L 356 1997 
L 356 2522 
L 3381 2522 
L 3381 1997 
z
" transform="scale(0.015625)"/>
        <path id="ArialMT-32" d="M 3222 541 
L 3222 0 
L 194 0 
Q 188 203 259 391 
Q 375 700 629 1000 
Q 884 1300 1366 1694 
Q 2113 2306 2375 2664 
Q 2638 3022 2638 3341 
Q 2638 3675 2398 3904 
Q 2159 4134 1775 4134 
Q 1369 4134 1125 3890 
Q 881 3647 878 3216 
L 300 3275 
Q 359 3922 746 4261 
Q 1134 4600 1788 4600 
Q 2447 4600 2831 4234 
Q 3216 3869 3216 3328 
Q 3216 3053 3103 2787 
Q 2991 2522 2730 2228 
Q 2469 1934 1863 1422 
Q 1356 997 1212 845 
Q 1069 694 975 541 
L 3222 541 
z
" transform="scale(0.015625)"/>
        <path id="ArialMT-2e" d="M 581 0 
L 581 641 
L 1222 641 
L 1222 0 
L 581 0 
z
" transform="scale(0.015625)"/>
        <path id="ArialMT-30" d="M 266 2259 
Q 266 3072 433 3567 
Q 600 4063 929 4331 
Q 1259 4600 1759 4600 
Q 2128 4600 2406 4451 
Q 2684 4303 2865 4023 
Q 3047 3744 3150 3342 
Q 3253 2941 3253 2259 
Q 3253 1453 3087 958 
Q 2922 463 2592 192 
Q 2263 -78 1759 -78 
Q 1097 -78 719 397 
Q 266 969 266 2259 
z
M 844 2259 
Q 844 1131 1108 757 
Q 1372 384 1759 384 
Q 2147 384 2411 759 
Q 2675 1134 2675 2259 
Q 2675 3391 2411 3762 
Q 2147 4134 1753 4134 
Q 1366 4134 1134 3806 
Q 844 3388 844 2259 
z
" transform="scale(0.015625)"/>
       </defs>
       <use xlink:href="#ArialMT-2212"/>
       <use xlink:href="#ArialMT-32" x="58.398438"/>
       <use xlink:href="#ArialMT-2e" x="114.013672"/>
       <use xlink:href="#ArialMT-30" x="141.796875"/>
      </g>
     </g>
    </g>
    <g id="ytick_2">
     <g id="line2d_2">
      <path d="M 90 311.474412 
L 648 311.474412 
" clip-path="url(#pbd9bce9780)" style="fill: none; stroke: #cccccc; stroke-linecap: round"/>
     </g>
     <g id="text_6">
      <!-- −1.5 -->
      <g style="fill: #262626" transform="translate(58.785313 315.411209) scale(0.11 -0.11)">
       <defs>
        <path id="ArialMT-31" d="M 2384 0 
L 1822 0 
L 1822 3584 
Q 1619 3391 1289 3197 
Q 959 3003 697 2906 
L 697 3450 
Q 1169 3672 1522 3987 
Q 1875 4303 2022 4600 
L 2384 4600 
L 2384 0 
z
" transform="scale(0.015625)"/>
        <path id="ArialMT-35" d="M 266 1200 
L 856 1250 
Q 922 819 1161 601 
Q 1400 384 1738 384 
Q 2144 384 2425 690 
Q 2706 997 2706 1503 
Q 2706 1984 2436 2262 
Q 2166 2541 1728 2541 
Q 1456 2541 1237 2417 
Q 1019 2294 894 2097 
L 366 2166 
L 809 4519 
L 3088 4519 
L 3088 3981 
L 1259 3981 
L 1013 2750 
Q 1425 3038 1878 3038 
Q 2478 3038 2890 2622 
Q 3303 2206 3303 1553 
Q 3303 931 2941 478 
Q 2500 -78 1738 -78 
Q 1113 -78 717 272 
Q 322 622 266 1200 
z
" transform="scale(0.015625)"/>
       </defs>
       <use xlink:href="#ArialMT-2212"/>
       <use xlink:href="#ArialMT-31" x="58.398438"/>
       <use xlink:href="#ArialMT-2e" x="114.013672"/>
       <use xlink:href="#ArialMT-35" x="141.796875"/>
      </g>
     </g>
    </g>
    <g id="ytick_3">
     <g id="line2d_3">
      <path d="M 90 265.729824 
L 648 265.729824 
" clip-path="url(#pbd9bce9780)" style="fill: none; stroke: #cccccc; stroke-linecap: round"/>
     </g>
     <g id="text_7">
      <!-- −1.0 -->
      <g style="fill: #262626" transform="translate(58.785313 269.666621) scale(0.11 -0.11)">
       <use xlink:href="#ArialMT-2212"/>
       <use xlink:href="#ArialMT-31" x="58.398438"/>
       <use xlink:href="#ArialMT-2e" x="114.013672"/>
       <use xlink:href="#ArialMT-30" x="141.796875"/>
      </g>
     </g>
    </g>
    <g id="ytick_4">
     <g id="line2d_4">
      <path d="M 90 219.985236 
L 648 219.985236 
" clip-path="url(#pbd9bce9780)" style="fill: none; stroke: #cccccc; stroke-linecap: round"/>
     </g>
     <g id="text_8">
      <!-- −0.5 -->
      <g style="fill: #262626" transform="translate(58.785313 223.922032) scale(0.11 -0.11)">
       <use xlink:href="#ArialMT-2212"/>
       <use xlink:href="#ArialMT-30" x="58.398438"/>
       <use xlink:href="#ArialMT-2e" x="114.013672"/>
       <use xlink:href="#ArialMT-35" x="141.796875"/>
      </g>
     </g>
    </g>
    <g id="ytick_5">
     <g id="line2d_5">
      <path d="M 90 174.240648 
L 648 174.240648 
" clip-path="url(#pbd9bce9780)" style="fill: none; stroke: #cccccc; stroke-linecap: round"/>
     </g>
     <g id="text_9">
      <!-- 0.0 -->
      <g style="fill: #262626" transform="translate(65.21 178.177444) scale(0.11 -0.11)">
       <use xlink:href="#ArialMT-30"/>
       <use xlink:href="#ArialMT-2e" x="55.615234"/>
       <use xlink:href="#ArialMT-30" x="83.398438"/>
      </g>
     </g>
    </g>
    <g id="ytick_6">
     <g id="line2d_6">
      <path d="M 90 128.496059 
L 648 128.496059 
" clip-path="url(#pbd9bce9780)" style="fill: none; stroke: #cccccc; stroke-linecap: round"/>
     </g>
     <g id="text_10">
      <!-- 0.5 -->
      <g style="fill: #262626" transform="translate(65.21 132.432856) scale(0.11 -0.11)">
       <use xlink:href="#ArialMT-30"/>
       <use xlink:href="#ArialMT-2e" x="55.615234"/>
       <use xlink:href="#ArialMT-35" x="83.398438"/>
      </g>
     </g>
    </g>
    <g id="ytick_7">
     <g id="line2d_7">
      <path d="M 90 82.751471 
L 648 82.751471 
" clip-path="url(#pbd9bce9780)" style="fill: none; stroke: #cccccc; stroke-linecap: round"/>
     </g>
     <g id="text_11">
      <!-- 1.0 -->
      <g style="fill: #262626" transform="translate(65.21 86.688268) scale(0.11 -0.11)">
       <use xlink:href="#ArialMT-31"/>
       <use xlink:href="#ArialMT-2e" x="55.615234"/>
       <use xlink:href="#ArialMT-30" x="83.398438"/>
      </g>
     </g>
    </g>
    <g id="text_12">
     <!-- Coefficient value -->
     <g style="fill: #262626" transform="translate(52.400312 262.410937) rotate(-90) scale(0.12 -0.12)">
      <defs>
       <path id="ArialMT-43" d="M 3763 1606 
L 4369 1453 
Q 4178 706 3683 314 
Q 3188 -78 2472 -78 
Q 1731 -78 1267 223 
Q 803 525 561 1097 
Q 319 1669 319 2325 
Q 319 3041 592 3573 
Q 866 4106 1370 4382 
Q 1875 4659 2481 4659 
Q 3169 4659 3637 4309 
Q 4106 3959 4291 3325 
L 3694 3184 
Q 3534 3684 3231 3912 
Q 2928 4141 2469 4141 
Q 1941 4141 1586 3887 
Q 1231 3634 1087 3207 
Q 944 2781 944 2328 
Q 944 1744 1114 1308 
Q 1284 872 1643 656 
Q 2003 441 2422 441 
Q 2931 441 3284 734 
Q 3638 1028 3763 1606 
z
" transform="scale(0.015625)"/>
       <path id="ArialMT-6f" d="M 213 1659 
Q 213 2581 725 3025 
Q 1153 3394 1769 3394 
Q 2453 3394 2887 2945 
Q 3322 2497 3322 1706 
Q 3322 1066 3130 698 
Q 2938 331 2570 128 
Q 2203 -75 1769 -75 
Q 1072 -75 642 372 
Q 213 819 213 1659 
z
M 791 1659 
Q 791 1022 1069 705 
Q 1347 388 1769 388 
Q 2188 388 2466 706 
Q 2744 1025 2744 1678 
Q 2744 2294 2464 2611 
Q 2184 2928 1769 2928 
Q 1347 2928 1069 2612 
Q 791 2297 791 1659 
z
" transform="scale(0.015625)"/>
       <path id="ArialMT-66" d="M 556 0 
L 556 2881 
L 59 2881 
L 59 3319 
L 556 3319 
L 556 3672 
Q 556 4006 616 4169 
Q 697 4388 901 4523 
Q 1106 4659 1475 4659 
Q 1713 4659 2000 4603 
L 1916 4113 
Q 1741 4144 1584 4144 
Q 1328 4144 1222 4034 
Q 1116 3925 1116 3625 
L 1116 3319 
L 1763 3319 
L 1763 2881 
L 1116 2881 
L 1116 0 
L 556 0 
z
" transform="scale(0.015625)"/>
       <path id="ArialMT-69" d="M 425 3934 
L 425 4581 
L 988 4581 
L 988 3934 
L 425 3934 
z
M 425 0 
L 425 3319 
L 988 3319 
L 988 0 
L 425 0 
z
" transform="scale(0.015625)"/>
       <path id="ArialMT-63" d="M 2588 1216 
L 3141 1144 
Q 3050 572 2676 248 
Q 2303 -75 1759 -75 
Q 1078 -75 664 370 
Q 250 816 250 1647 
Q 250 2184 428 2587 
Q 606 2991 970 3192 
Q 1334 3394 1763 3394 
Q 2303 3394 2647 3120 
Q 2991 2847 3088 2344 
L 2541 2259 
Q 2463 2594 2264 2762 
Q 2066 2931 1784 2931 
Q 1359 2931 1093 2626 
Q 828 2322 828 1663 
Q 828 994 1084 691 
Q 1341 388 1753 388 
Q 2084 388 2306 591 
Q 2528 794 2588 1216 
z
" transform="scale(0.015625)"/>
       <path id="ArialMT-6e" d="M 422 0 
L 422 3319 
L 928 3319 
L 928 2847 
Q 1294 3394 1984 3394 
Q 2284 3394 2536 3286 
Q 2788 3178 2913 3003 
Q 3038 2828 3088 2588 
Q 3119 2431 3119 2041 
L 3119 0 
L 2556 0 
L 2556 2019 
Q 2556 2363 2490 2533 
Q 2425 2703 2258 2804 
Q 2091 2906 1866 2906 
Q 1506 2906 1245 2678 
Q 984 2450 984 1813 
L 984 0 
L 422 0 
z
" transform="scale(0.015625)"/>
       <path id="ArialMT-20" transform="scale(0.015625)"/>
       <path id="ArialMT-76" d="M 1344 0 
L 81 3319 
L 675 3319 
L 1388 1331 
Q 1503 1009 1600 663 
Q 1675 925 1809 1294 
L 2547 3319 
L 3125 3319 
L 1869 0 
L 1344 0 
z
" transform="scale(0.015625)"/>
       <path id="ArialMT-61" d="M 2588 409 
Q 2275 144 1986 34 
Q 1697 -75 1366 -75 
Q 819 -75 525 192 
Q 231 459 231 875 
Q 231 1119 342 1320 
Q 453 1522 633 1644 
Q 813 1766 1038 1828 
Q 1203 1872 1538 1913 
Q 2219 1994 2541 2106 
Q 2544 2222 2544 2253 
Q 2544 2597 2384 2738 
Q 2169 2928 1744 2928 
Q 1347 2928 1158 2789 
Q 969 2650 878 2297 
L 328 2372 
Q 403 2725 575 2942 
Q 747 3159 1072 3276 
Q 1397 3394 1825 3394 
Q 2250 3394 2515 3294 
Q 2781 3194 2906 3042 
Q 3031 2891 3081 2659 
Q 3109 2516 3109 2141 
L 3109 1391 
Q 3109 606 3145 398 
Q 3181 191 3288 0 
L 2700 0 
Q 2613 175 2588 409 
z
M 2541 1666 
Q 2234 1541 1622 1453 
Q 1275 1403 1131 1340 
Q 988 1278 909 1158 
Q 831 1038 831 891 
Q 831 666 1001 516 
Q 1172 366 1500 366 
Q 1825 366 2078 508 
Q 2331 650 2450 897 
Q 2541 1088 2541 1459 
L 2541 1666 
z
" transform="scale(0.015625)"/>
       <path id="ArialMT-6c" d="M 409 0 
L 409 4581 
L 972 4581 
L 972 0 
L 409 0 
z
" transform="scale(0.015625)"/>
      </defs>
      <use xlink:href="#ArialMT-43"/>
      <use xlink:href="#ArialMT-6f" x="72.216797"/>
      <use xlink:href="#ArialMT-65" x="127.832031"/>
      <use xlink:href="#ArialMT-66" x="183.447266"/>
      <use xlink:href="#ArialMT-66" x="209.480469"/>
      <use xlink:href="#ArialMT-69" x="237.263672"/>
      <use xlink:href="#ArialMT-63" x="259.480469"/>
      <use xlink:href="#ArialMT-69" x="309.480469"/>
      <use xlink:href="#ArialMT-65" x="331.697266"/>
      <use xlink:href="#ArialMT-6e" x="387.3125"/>
      <use xlink:href="#ArialMT-74" x="442.927734"/>
      <use xlink:href="#ArialMT-20" x="470.710938"/>
      <use xlink:href="#ArialMT-76" x="498.494141"/>
      <use xlink:href="#ArialMT-61" x="548.494141"/>
      <use xlink:href="#ArialMT-6c" x="604.109375"/>
      <use xlink:href="#ArialMT-75" x="626.326172"/>
      <use xlink:href="#ArialMT-65" x="681.941406"/>
     </g>
    </g>
   </g>
   <g id="patch_3">
    <path d="M 183 174.240648 
L 183 174.240648 
L 183 174.240648 
L 183 174.240648 
z
" clip-path="url(#pbd9bce9780)" style="fill: #72b6a1; stroke: #595959; stroke-linejoin: miter"/>
   </g>
   <g id="patch_4">
    <path d="M 183 174.240648 
L 183 174.240648 
L 183 174.240648 
L 183 174.240648 
z
" clip-path="url(#pbd9bce9780)" style="fill: #e99675; stroke: #595959; stroke-linejoin: miter"/>
   </g>
   <g id="patch_5">
    <path d="M 183 174.240648 
L 183 174.240648 
L 183 174.240648 
L 183 174.240648 
z
" clip-path="url(#pbd9bce9780)" style="fill: #95a3c3; stroke: #595959; stroke-linejoin: miter"/>
   </g>
   <g id="patch_6">
    <path d="M 183 174.240648 
L 183 174.240648 
L 183 174.240648 
L 183 174.240648 
z
" clip-path="url(#pbd9bce9780)" style="fill: #db96c0; stroke: #595959; stroke-linejoin: miter"/>
   </g>
   <g id="patch_7">
    <path d="M 183 174.240648 
L 183 174.240648 
L 183 174.240648 
L 183 174.240648 
z
" clip-path="url(#pbd9bce9780)" style="fill: #a2c865; stroke: #595959; stroke-linejoin: miter"/>
   </g>
   <g id="patch_8">
    <path d="M 183 174.240648 
L 183 174.240648 
L 183 174.240648 
L 183 174.240648 
z
" clip-path="url(#pbd9bce9780)" style="fill: #e5c849; stroke: #595959; stroke-linejoin: miter"/>
   </g>
   <g id="patch_9">
    <path d="M 108.6 219.621202 
L 133.4 219.621202 
L 133.4 137.153997 
L 108.6 137.153997 
L 108.6 219.621202 
z
" clip-path="url(#pbd9bce9780)" style="fill: #72b6a1; stroke: #595959; stroke-linejoin: miter"/>
   </g>
   <g id="line2d_8">
    <path d="M 121 219.621202 
L 121 265.729824 
" clip-path="url(#pbd9bce9780)" style="fill: none; stroke: #595959"/>
   </g>
   <g id="line2d_9">
    <path d="M 121 137.153997 
L 121 99.963911 
" clip-path="url(#pbd9bce9780)" style="fill: none; stroke: #595959"/>
   </g>
   <g id="line2d_10">
    <path d="M 114.8 265.729824 
L 127.2 265.729824 
" clip-path="url(#pbd9bce9780)" style="fill: none; stroke: #595959; stroke-linecap: round"/>
   </g>
   <g id="line2d_11">
    <path d="M 114.8 99.963911 
L 127.2 99.963911 
" clip-path="url(#pbd9bce9780)" style="fill: none; stroke: #595959; stroke-linecap: round"/>
   </g>
   <g id="line2d_12"/>
   <g id="patch_10">
    <path d="M 294.6 358.32103 
L 319.4 358.32103 
L 319.4 265.729824 
L 294.6 265.729824 
L 294.6 358.32103 
z
" clip-path="url(#pbd9bce9780)" style="fill: #72b6a1; stroke: #595959; stroke-linejoin: miter"/>
   </g>
   <g id="line2d_13">
    <path d="M 307 358.32103 
L 307 364.261109 
" clip-path="url(#pbd9bce9780)" style="fill: none; stroke: #595959"/>
   </g>
   <g id="line2d_14">
    <path d="M 307 265.729824 
L 307 173.749758 
" clip-path="url(#pbd9bce9780)" style="fill: none; stroke: #595959"/>
   </g>
   <g id="line2d_15">
    <path d="M 300.8 364.261109 
L 313.2 364.261109 
" clip-path="url(#pbd9bce9780)" style="fill: none; stroke: #595959; stroke-linecap: round"/>
   </g>
   <g id="line2d_16">
    <path d="M 300.8 173.749758 
L 313.2 173.749758 
" clip-path="url(#pbd9bce9780)" style="fill: none; stroke: #595959; stroke-linecap: round"/>
   </g>
   <g id="line2d_17">
    <defs>
     <path id="md1eb975f5b" d="M 0 3 
C 0.795609 3 1.55874 2.683901 2.12132 2.12132 
C 2.683901 1.55874 3 0.795609 3 0 
C 3 -0.795609 2.683901 -1.55874 2.12132 -2.12132 
C 1.55874 -2.683901 0.795609 -3 0 -3 
C -0.795609 -3 -1.55874 -2.683901 -2.12132 -2.12132 
C -2.683901 -1.55874 -3 -0.795609 -3 0 
C -3 0.795609 -2.683901 1.55874 -2.12132 2.12132 
C -1.55874 2.683901 -0.795609 3 0 3 
z
" style="stroke: #595959"/>
    </defs>
    <g clip-path="url(#pbd9bce9780)">
     <use xlink:href="#md1eb975f5b" x="307" y="67.482319" style="fill-opacity: 0; stroke: #595959"/>
    </g>
   </g>
   <g id="patch_11">
    <path d="M 480.6 174.255001 
L 505.4 174.255001 
L 505.4 174.250389 
L 480.6 174.250389 
L 480.6 174.255001 
z
" clip-path="url(#pbd9bce9780)" style="fill: #72b6a1; stroke: #595959; stroke-linejoin: miter"/>
   </g>
   <g id="line2d_18">
    <path d="M 493 174.255001 
L 493 174.260577 
" clip-path="url(#pbd9bce9780)" style="fill: none; stroke: #595959"/>
   </g>
   <g id="line2d_19">
    <path d="M 493 174.250389 
L 493 174.249986 
" clip-path="url(#pbd9bce9780)" style="fill: none; stroke: #595959"/>
   </g>
   <g id="line2d_20">
    <path d="M 486.8 174.260577 
L 499.2 174.260577 
" clip-path="url(#pbd9bce9780)" style="fill: none; stroke: #595959; stroke-linecap: round"/>
   </g>
   <g id="line2d_21">
    <path d="M 486.8 174.249986 
L 499.2 174.249986 
" clip-path="url(#pbd9bce9780)" style="fill: none; stroke: #595959; stroke-linecap: round"/>
   </g>
   <g id="line2d_22"/>
   <g id="patch_12">
    <path d="M 133.4 265.729824 
L 158.2 265.729824 
L 158.2 197.462695 
L 133.4 197.462695 
L 133.4 265.729824 
z
" clip-path="url(#pbd9bce9780)" style="fill: #e99675; stroke: #595959; stroke-linejoin: miter"/>
   </g>
   <g id="line2d_23">
    <path d="M 145.8 265.729824 
L 145.8 265.729824 
" clip-path="url(#pbd9bce9780)" style="fill: none; stroke: #595959"/>
   </g>
   <g id="line2d_24">
    <path d="M 145.8 197.462695 
L 145.8 99.963911 
" clip-path="url(#pbd9bce9780)" style="fill: none; stroke: #595959"/>
   </g>
   <g id="line2d_25">
    <path d="M 139.6 265.729824 
L 152 265.729824 
" clip-path="url(#pbd9bce9780)" style="fill: none; stroke: #595959; stroke-linecap: round"/>
   </g>
   <g id="line2d_26">
    <path d="M 139.6 99.963911 
L 152 99.963911 
" clip-path="url(#pbd9bce9780)" style="fill: none; stroke: #595959; stroke-linecap: round"/>
   </g>
   <g id="line2d_27"/>
   <g id="patch_13">
    <path d="M 319.4 177.116903 
L 344.2 177.116903 
L 344.2 177.116903 
L 319.4 177.116903 
L 319.4 177.116903 
z
" clip-path="url(#pbd9bce9780)" style="fill: #e99675; stroke: #595959; stroke-linejoin: miter"/>
   </g>
   <g id="line2d_28">
    <path d="M 331.8 177.116903 
L 331.8 177.116903 
" clip-path="url(#pbd9bce9780)" style="fill: none; stroke: #595959"/>
   </g>
   <g id="line2d_29">
    <path d="M 331.8 177.116903 
L 331.8 177.116903 
" clip-path="url(#pbd9bce9780)" style="fill: none; stroke: #595959"/>
   </g>
   <g id="line2d_30">
    <path d="M 325.6 177.116903 
L 338 177.116903 
" clip-path="url(#pbd9bce9780)" style="fill: none; stroke: #595959; stroke-linecap: round"/>
   </g>
   <g id="line2d_31">
    <path d="M 325.6 177.116903 
L 338 177.116903 
" clip-path="url(#pbd9bce9780)" style="fill: none; stroke: #595959; stroke-linecap: round"/>
   </g>
   <g id="line2d_32">
    <g clip-path="url(#pbd9bce9780)">
     <use xlink:href="#md1eb975f5b" x="331.8" y="177.044756" style="fill-opacity: 0; stroke: #595959"/>
     <use xlink:href="#md1eb975f5b" x="331.8" y="177.044756" style="fill-opacity: 0; stroke: #595959"/>
     <use xlink:href="#md1eb975f5b" x="331.8" y="177.044756" style="fill-opacity: 0; stroke: #595959"/>
     <use xlink:href="#md1eb975f5b" x="331.8" y="174.433352" style="fill-opacity: 0; stroke: #595959"/>
     <use xlink:href="#md1eb975f5b" x="331.8" y="174.433352" style="fill-opacity: 0; stroke: #595959"/>
     <use xlink:href="#md1eb975f5b" x="331.8" y="174.433352" style="fill-opacity: 0; stroke: #595959"/>
     <use xlink:href="#md1eb975f5b" x="331.8" y="177.099135" style="fill-opacity: 0; stroke: #595959"/>
     <use xlink:href="#md1eb975f5b" x="331.8" y="177.099135" style="fill-opacity: 0; stroke: #595959"/>
     <use xlink:href="#md1eb975f5b" x="331.8" y="177.099135" style="fill-opacity: 0; stroke: #595959"/>
     <use xlink:href="#md1eb975f5b" x="331.8" y="174.433352" style="fill-opacity: 0; stroke: #595959"/>
     <use xlink:href="#md1eb975f5b" x="331.8" y="174.433352" style="fill-opacity: 0; stroke: #595959"/>
     <use xlink:href="#md1eb975f5b" x="331.8" y="174.433352" style="fill-opacity: 0; stroke: #595959"/>
     <use xlink:href="#md1eb975f5b" x="331.8" y="177.099135" style="fill-opacity: 0; stroke: #595959"/>
     <use xlink:href="#md1eb975f5b" x="331.8" y="177.099135" style="fill-opacity: 0; stroke: #595959"/>
     <use xlink:href="#md1eb975f5b" x="331.8" y="174.433352" style="fill-opacity: 0; stroke: #595959"/>
    </g>
   </g>
   <g id="patch_14">
    <path d="M 158.2 265.729824 
L 183 265.729824 
L 183 265.729824 
L 158.2 265.729824 
L 158.2 265.729824 
z
" clip-path="url(#pbd9bce9780)" style="fill: #95a3c3; stroke: #595959; stroke-linejoin: miter"/>
   </g>
   <g id="line2d_33">
    <path d="M 170.6 265.729824 
L 170.6 265.729824 
" clip-path="url(#pbd9bce9780)" style="fill: none; stroke: #595959"/>
   </g>
   <g id="line2d_34">
    <path d="M 170.6 265.729824 
L 170.6 265.729824 
" clip-path="url(#pbd9bce9780)" style="fill: none; stroke: #595959"/>
   </g>
   <g id="line2d_35">
    <path d="M 164.4 265.729824 
L 176.8 265.729824 
" clip-path="url(#pbd9bce9780)" style="fill: none; stroke: #595959; stroke-linecap: round"/>
   </g>
   <g id="line2d_36">
    <path d="M 164.4 265.729824 
L 176.8 265.729824 
" clip-path="url(#pbd9bce9780)" style="fill: none; stroke: #595959; stroke-linecap: round"/>
   </g>
   <g id="line2d_37">
    <g clip-path="url(#pbd9bce9780)">
     <use xlink:href="#md1eb975f5b" x="170.6" y="177.065137" style="fill-opacity: 0; stroke: #595959"/>
     <use xlink:href="#md1eb975f5b" x="170.6" y="177.065137" style="fill-opacity: 0; stroke: #595959"/>
    </g>
   </g>
   <g id="patch_15">
    <path d="M 344.2 265.729824 
L 369 265.729824 
L 369 214.057917 
L 344.2 214.057917 
L 344.2 265.729824 
z
" clip-path="url(#pbd9bce9780)" style="fill: #95a3c3; stroke: #595959; stroke-linejoin: miter"/>
   </g>
   <g id="line2d_38">
    <path d="M 356.6 265.729824 
L 356.6 265.729824 
" clip-path="url(#pbd9bce9780)" style="fill: none; stroke: #595959"/>
   </g>
   <g id="line2d_39">
    <path d="M 356.6 214.057917 
L 356.6 174.212472 
" clip-path="url(#pbd9bce9780)" style="fill: none; stroke: #595959"/>
   </g>
   <g id="line2d_40">
    <path d="M 350.4 265.729824 
L 362.8 265.729824 
" clip-path="url(#pbd9bce9780)" style="fill: none; stroke: #595959; stroke-linecap: round"/>
   </g>
   <g id="line2d_41">
    <path d="M 350.4 174.212472 
L 362.8 174.212472 
" clip-path="url(#pbd9bce9780)" style="fill: none; stroke: #595959; stroke-linecap: round"/>
   </g>
   <g id="line2d_42">
    <g clip-path="url(#pbd9bce9780)">
     <use xlink:href="#md1eb975f5b" x="356.6" y="369.36" style="fill-opacity: 0; stroke: #595959"/>
     <use xlink:href="#md1eb975f5b" x="356.6" y="366.171208" style="fill-opacity: 0; stroke: #595959"/>
     <use xlink:href="#md1eb975f5b" x="356.6" y="369.36" style="fill-opacity: 0; stroke: #595959"/>
    </g>
   </g>
   <g id="patch_16">
    <path d="M 530.2 174.440932 
L 555 174.440932 
L 555 174.440932 
L 530.2 174.440932 
L 530.2 174.440932 
z
" clip-path="url(#pbd9bce9780)" style="fill: #95a3c3; stroke: #595959; stroke-linejoin: miter"/>
   </g>
   <g id="line2d_43">
    <path d="M 542.6 174.440932 
L 542.6 174.440932 
" clip-path="url(#pbd9bce9780)" style="fill: none; stroke: #595959"/>
   </g>
   <g id="line2d_44">
    <path d="M 542.6 174.440932 
L 542.6 174.440932 
" clip-path="url(#pbd9bce9780)" style="fill: none; stroke: #595959"/>
   </g>
   <g id="line2d_45">
    <path d="M 536.4 174.440932 
L 548.8 174.440932 
" clip-path="url(#pbd9bce9780)" style="fill: none; stroke: #595959; stroke-linecap: round"/>
   </g>
   <g id="line2d_46">
    <path d="M 536.4 174.440932 
L 548.8 174.440932 
" clip-path="url(#pbd9bce9780)" style="fill: none; stroke: #595959; stroke-linecap: round"/>
   </g>
   <g id="line2d_47"/>
   <g id="patch_17">
    <path d="M 183 174.406745 
L 207.8 174.406745 
L 207.8 174.283465 
L 183 174.283465 
L 183 174.406745 
z
" clip-path="url(#pbd9bce9780)" style="fill: #db96c0; stroke: #595959; stroke-linejoin: miter"/>
   </g>
   <g id="line2d_48">
    <path d="M 195.4 174.406745 
L 195.4 174.406745 
" clip-path="url(#pbd9bce9780)" style="fill: none; stroke: #595959"/>
   </g>
   <g id="line2d_49">
    <path d="M 195.4 174.283465 
L 195.4 174.204833 
" clip-path="url(#pbd9bce9780)" style="fill: none; stroke: #595959"/>
   </g>
   <g id="line2d_50">
    <path d="M 189.2 174.406745 
L 201.6 174.406745 
" clip-path="url(#pbd9bce9780)" style="fill: none; stroke: #595959; stroke-linecap: round"/>
   </g>
   <g id="line2d_51">
    <path d="M 189.2 174.204833 
L 201.6 174.204833 
" clip-path="url(#pbd9bce9780)" style="fill: none; stroke: #595959; stroke-linecap: round"/>
   </g>
   <g id="line2d_52">
    <g clip-path="url(#pbd9bce9780)">
     <use xlink:href="#md1eb975f5b" x="195.4" y="189.190503" style="fill-opacity: 0; stroke: #595959"/>
     <use xlink:href="#md1eb975f5b" x="195.4" y="185.99994" style="fill-opacity: 0; stroke: #595959"/>
     <use xlink:href="#md1eb975f5b" x="195.4" y="185.898168" style="fill-opacity: 0; stroke: #595959"/>
     <use xlink:href="#md1eb975f5b" x="195.4" y="185.898168" style="fill-opacity: 0; stroke: #595959"/>
     <use xlink:href="#md1eb975f5b" x="195.4" y="146.912505" style="fill-opacity: 0; stroke: #595959"/>
     <use xlink:href="#md1eb975f5b" x="195.4" y="169.660838" style="fill-opacity: 0; stroke: #595959"/>
     <use xlink:href="#md1eb975f5b" x="195.4" y="101.739571" style="fill-opacity: 0; stroke: #595959"/>
    </g>
   </g>
   <g id="patch_18">
    <path d="M 369 175.313936 
L 393.8 175.313936 
L 393.8 173.706825 
L 369 173.706825 
L 369 175.313936 
z
" clip-path="url(#pbd9bce9780)" style="fill: #db96c0; stroke: #595959; stroke-linejoin: miter"/>
   </g>
   <g id="line2d_53">
    <path d="M 381.4 175.313936 
L 381.4 175.786504 
" clip-path="url(#pbd9bce9780)" style="fill: none; stroke: #595959"/>
   </g>
   <g id="line2d_54">
    <path d="M 381.4 173.706825 
L 381.4 173.097191 
" clip-path="url(#pbd9bce9780)" style="fill: none; stroke: #595959"/>
   </g>
   <g id="line2d_55">
    <path d="M 375.2 175.786504 
L 387.6 175.786504 
" clip-path="url(#pbd9bce9780)" style="fill: none; stroke: #595959; stroke-linecap: round"/>
   </g>
   <g id="line2d_56">
    <path d="M 375.2 173.097191 
L 387.6 173.097191 
" clip-path="url(#pbd9bce9780)" style="fill: none; stroke: #595959; stroke-linecap: round"/>
   </g>
   <g id="line2d_57">
    <g clip-path="url(#pbd9bce9780)">
     <use xlink:href="#md1eb975f5b" x="381.4" y="265.729824" style="fill-opacity: 0; stroke: #595959"/>
     <use xlink:href="#md1eb975f5b" x="381.4" y="265.729824" style="fill-opacity: 0; stroke: #595959"/>
     <use xlink:href="#md1eb975f5b" x="381.4" y="227.345704" style="fill-opacity: 0; stroke: #595959"/>
     <use xlink:href="#md1eb975f5b" x="381.4" y="227.92657" style="fill-opacity: 0; stroke: #595959"/>
     <use xlink:href="#md1eb975f5b" x="381.4" y="227.963285" style="fill-opacity: 0; stroke: #595959"/>
     <use xlink:href="#md1eb975f5b" x="381.4" y="227.963285" style="fill-opacity: 0; stroke: #595959"/>
     <use xlink:href="#md1eb975f5b" x="381.4" y="265.729824" style="fill-opacity: 0; stroke: #595959"/>
     <use xlink:href="#md1eb975f5b" x="381.4" y="265.729824" style="fill-opacity: 0; stroke: #595959"/>
     <use xlink:href="#md1eb975f5b" x="381.4" y="227.479367" style="fill-opacity: 0; stroke: #595959"/>
    </g>
   </g>
   <g id="patch_19">
    <path d="M 555 174.257316 
L 579.8 174.257316 
L 579.8 174.226343 
L 555 174.226343 
L 555 174.257316 
z
" clip-path="url(#pbd9bce9780)" style="fill: #db96c0; stroke: #595959; stroke-linejoin: miter"/>
   </g>
   <g id="line2d_58">
    <path d="M 567.4 174.257316 
L 567.4 174.260141 
" clip-path="url(#pbd9bce9780)" style="fill: none; stroke: #595959"/>
   </g>
   <g id="line2d_59">
    <path d="M 567.4 174.226343 
L 567.4 174.22102 
" clip-path="url(#pbd9bce9780)" style="fill: none; stroke: #595959"/>
   </g>
   <g id="line2d_60">
    <path d="M 561.2 174.260141 
L 573.6 174.260141 
" clip-path="url(#pbd9bce9780)" style="fill: none; stroke: #595959; stroke-linecap: round"/>
   </g>
   <g id="line2d_61">
    <path d="M 561.2 174.22102 
L 573.6 174.22102 
" clip-path="url(#pbd9bce9780)" style="fill: none; stroke: #595959; stroke-linecap: round"/>
   </g>
   <g id="line2d_62"/>
   <g id="patch_20">
    <path d="M 207.8 265.729824 
L 232.6 265.729824 
L 232.6 174.045981 
L 207.8 174.045981 
L 207.8 265.729824 
z
" clip-path="url(#pbd9bce9780)" style="fill: #a2c865; stroke: #595959; stroke-linejoin: miter"/>
   </g>
   <g id="line2d_63">
    <path d="M 220.2 265.729824 
L 220.2 265.729824 
" clip-path="url(#pbd9bce9780)" style="fill: none; stroke: #595959"/>
   </g>
   <g id="line2d_64">
    <path d="M 220.2 174.045981 
L 220.2 95.404049 
" clip-path="url(#pbd9bce9780)" style="fill: none; stroke: #595959"/>
   </g>
   <g id="line2d_65">
    <path d="M 214 265.729824 
L 226.4 265.729824 
" clip-path="url(#pbd9bce9780)" style="fill: none; stroke: #595959; stroke-linecap: round"/>
   </g>
   <g id="line2d_66">
    <path d="M 214 95.404049 
L 226.4 95.404049 
" clip-path="url(#pbd9bce9780)" style="fill: none; stroke: #595959; stroke-linecap: round"/>
   </g>
   <g id="line2d_67"/>
   <g id="patch_21">
    <path d="M 393.8 196.370574 
L 418.6 196.370574 
L 418.6 174.170714 
L 393.8 174.170714 
L 393.8 196.370574 
z
" clip-path="url(#pbd9bce9780)" style="fill: #a2c865; stroke: #595959; stroke-linejoin: miter"/>
   </g>
   <g id="line2d_68">
    <path d="M 406.2 196.370574 
L 406.2 197.215523 
" clip-path="url(#pbd9bce9780)" style="fill: none; stroke: #595959"/>
   </g>
   <g id="line2d_69">
    <path d="M 406.2 174.170714 
L 406.2 148.494113 
" clip-path="url(#pbd9bce9780)" style="fill: none; stroke: #595959"/>
   </g>
   <g id="line2d_70">
    <path d="M 400 197.215523 
L 412.4 197.215523 
" clip-path="url(#pbd9bce9780)" style="fill: none; stroke: #595959; stroke-linecap: round"/>
   </g>
   <g id="line2d_71">
    <path d="M 400 148.494113 
L 412.4 148.494113 
" clip-path="url(#pbd9bce9780)" style="fill: none; stroke: #595959; stroke-linecap: round"/>
   </g>
   <g id="line2d_72">
    <g clip-path="url(#pbd9bce9780)">
     <use xlink:href="#md1eb975f5b" x="406.2" y="71.11047" style="fill-opacity: 0; stroke: #595959"/>
     <use xlink:href="#md1eb975f5b" x="406.2" y="71.111676" style="fill-opacity: 0; stroke: #595959"/>
     <use xlink:href="#md1eb975f5b" x="406.2" y="71.11047" style="fill-opacity: 0; stroke: #595959"/>
     <use xlink:href="#md1eb975f5b" x="406.2" y="71.096391" style="fill-opacity: 0; stroke: #595959"/>
     <use xlink:href="#md1eb975f5b" x="406.2" y="71.096391" style="fill-opacity: 0; stroke: #595959"/>
     <use xlink:href="#md1eb975f5b" x="406.2" y="71.106328" style="fill-opacity: 0; stroke: #595959"/>
     <use xlink:href="#md1eb975f5b" x="406.2" y="71.111676" style="fill-opacity: 0; stroke: #595959"/>
     <use xlink:href="#md1eb975f5b" x="406.2" y="71.11047" style="fill-opacity: 0; stroke: #595959"/>
     <use xlink:href="#md1eb975f5b" x="406.2" y="71.111676" style="fill-opacity: 0; stroke: #595959"/>
     <use xlink:href="#md1eb975f5b" x="406.2" y="71.111676" style="fill-opacity: 0; stroke: #595959"/>
     <use xlink:href="#md1eb975f5b" x="406.2" y="71.11047" style="fill-opacity: 0; stroke: #595959"/>
     <use xlink:href="#md1eb975f5b" x="406.2" y="71.11047" style="fill-opacity: 0; stroke: #595959"/>
     <use xlink:href="#md1eb975f5b" x="406.2" y="71.217765" style="fill-opacity: 0; stroke: #595959"/>
     <use xlink:href="#md1eb975f5b" x="406.2" y="71.096391" style="fill-opacity: 0; stroke: #595959"/>
     <use xlink:href="#md1eb975f5b" x="406.2" y="71.11047" style="fill-opacity: 0; stroke: #595959"/>
     <use xlink:href="#md1eb975f5b" x="406.2" y="71.096391" style="fill-opacity: 0; stroke: #595959"/>
     <use xlink:href="#md1eb975f5b" x="406.2" y="71.111676" style="fill-opacity: 0; stroke: #595959"/>
     <use xlink:href="#md1eb975f5b" x="406.2" y="71.111676" style="fill-opacity: 0; stroke: #595959"/>
    </g>
   </g>
   <g id="patch_22">
    <path d="M 579.8 174.254637 
L 604.6 174.254637 
L 604.6 174.210816 
L 579.8 174.210816 
L 579.8 174.254637 
z
" clip-path="url(#pbd9bce9780)" style="fill: #a2c865; stroke: #595959; stroke-linejoin: miter"/>
   </g>
   <g id="line2d_73">
    <path d="M 592.2 174.254637 
L 592.2 174.257446 
" clip-path="url(#pbd9bce9780)" style="fill: none; stroke: #595959"/>
   </g>
   <g id="line2d_74">
    <path d="M 592.2 174.210816 
L 592.2 174.209928 
" clip-path="url(#pbd9bce9780)" style="fill: none; stroke: #595959"/>
   </g>
   <g id="line2d_75">
    <path d="M 586 174.257446 
L 598.4 174.257446 
" clip-path="url(#pbd9bce9780)" style="fill: none; stroke: #595959; stroke-linecap: round"/>
   </g>
   <g id="line2d_76">
    <path d="M 586 174.209928 
L 598.4 174.209928 
" clip-path="url(#pbd9bce9780)" style="fill: none; stroke: #595959; stroke-linecap: round"/>
   </g>
   <g id="line2d_77"/>
   <g id="patch_23">
    <path d="M 232.6 265.729824 
L 257.4 265.729824 
L 257.4 265.729824 
L 232.6 265.729824 
L 232.6 265.729824 
z
" clip-path="url(#pbd9bce9780)" style="fill: #e5c849; stroke: #595959; stroke-linejoin: miter"/>
   </g>
   <g id="line2d_78">
    <path d="M 245 265.729824 
L 245 265.729824 
" clip-path="url(#pbd9bce9780)" style="fill: none; stroke: #595959"/>
   </g>
   <g id="line2d_79">
    <path d="M 245 265.729824 
L 245 265.729824 
" clip-path="url(#pbd9bce9780)" style="fill: none; stroke: #595959"/>
   </g>
   <g id="line2d_80">
    <path d="M 238.8 265.729824 
L 251.2 265.729824 
" clip-path="url(#pbd9bce9780)" style="fill: none; stroke: #595959; stroke-linecap: round"/>
   </g>
   <g id="line2d_81">
    <path d="M 238.8 265.729824 
L 251.2 265.729824 
" clip-path="url(#pbd9bce9780)" style="fill: none; stroke: #595959; stroke-linecap: round"/>
   </g>
   <g id="line2d_82">
    <g clip-path="url(#pbd9bce9780)">
     <use xlink:href="#md1eb975f5b" x="245" y="158.901324" style="fill-opacity: 0; stroke: #595959"/>
     <use xlink:href="#md1eb975f5b" x="245" y="173.175103" style="fill-opacity: 0; stroke: #595959"/>
     <use xlink:href="#md1eb975f5b" x="245" y="175.127842" style="fill-opacity: 0; stroke: #595959"/>
     <use xlink:href="#md1eb975f5b" x="245" y="161.02253" style="fill-opacity: 0; stroke: #595959"/>
     <use xlink:href="#md1eb975f5b" x="245" y="173.413775" style="fill-opacity: 0; stroke: #595959"/>
    </g>
   </g>
   <g id="patch_24">
    <path d="M 418.6 265.729824 
L 443.4 265.729824 
L 443.4 265.729824 
L 418.6 265.729824 
L 418.6 265.729824 
z
" clip-path="url(#pbd9bce9780)" style="fill: #e5c849; stroke: #595959; stroke-linejoin: miter"/>
   </g>
   <g id="line2d_83">
    <path d="M 431 265.729824 
L 431 265.729824 
" clip-path="url(#pbd9bce9780)" style="fill: none; stroke: #595959"/>
   </g>
   <g id="line2d_84">
    <path d="M 431 265.729824 
L 431 265.729824 
" clip-path="url(#pbd9bce9780)" style="fill: none; stroke: #595959"/>
   </g>
   <g id="line2d_85">
    <path d="M 424.8 265.729824 
L 437.2 265.729824 
" clip-path="url(#pbd9bce9780)" style="fill: none; stroke: #595959; stroke-linecap: round"/>
   </g>
   <g id="line2d_86">
    <path d="M 424.8 265.729824 
L 437.2 265.729824 
" clip-path="url(#pbd9bce9780)" style="fill: none; stroke: #595959; stroke-linecap: round"/>
   </g>
   <g id="line2d_87">
    <g clip-path="url(#pbd9bce9780)">
     <use xlink:href="#md1eb975f5b" x="431" y="175.450986" style="fill-opacity: 0; stroke: #595959"/>
     <use xlink:href="#md1eb975f5b" x="431" y="181.212339" style="fill-opacity: 0; stroke: #595959"/>
     <use xlink:href="#md1eb975f5b" x="431" y="174.359679" style="fill-opacity: 0; stroke: #595959"/>
     <use xlink:href="#md1eb975f5b" x="431" y="219.69365" style="fill-opacity: 0; stroke: #595959"/>
     <use xlink:href="#md1eb975f5b" x="431" y="175.450986" style="fill-opacity: 0; stroke: #595959"/>
     <use xlink:href="#md1eb975f5b" x="431" y="174.227443" style="fill-opacity: 0; stroke: #595959"/>
     <use xlink:href="#md1eb975f5b" x="431" y="206.788136" style="fill-opacity: 0; stroke: #595959"/>
     <use xlink:href="#md1eb975f5b" x="431" y="174.418747" style="fill-opacity: 0; stroke: #595959"/>
     <use xlink:href="#md1eb975f5b" x="431" y="181.308154" style="fill-opacity: 0; stroke: #595959"/>
    </g>
   </g>
   <g id="patch_25">
    <path d="M 604.6 69.116328 
L 629.4 69.116328 
L 629.4 67.678776 
L 604.6 67.678776 
L 604.6 69.116328 
z
" clip-path="url(#pbd9bce9780)" style="fill: #e5c849; stroke: #595959; stroke-linejoin: miter"/>
   </g>
   <g id="line2d_88">
    <path d="M 617 69.116328 
L 617 69.835104 
" clip-path="url(#pbd9bce9780)" style="fill: none; stroke: #595959"/>
   </g>
   <g id="line2d_89">
    <path d="M 617 67.678776 
L 617 66.96 
" clip-path="url(#pbd9bce9780)" style="fill: none; stroke: #595959"/>
   </g>
   <g id="line2d_90">
    <path d="M 610.8 69.835104 
L 623.2 69.835104 
" clip-path="url(#pbd9bce9780)" style="fill: none; stroke: #595959; stroke-linecap: round"/>
   </g>
   <g id="line2d_91">
    <path d="M 610.8 66.96 
L 623.2 66.96 
" clip-path="url(#pbd9bce9780)" style="fill: none; stroke: #595959; stroke-linecap: round"/>
   </g>
   <g id="line2d_92"/>
   <g id="line2d_93">
    <path d="M 108.6 219.5439 
L 133.4 219.5439 
" clip-path="url(#pbd9bce9780)" style="fill: none; stroke: #595959"/>
   </g>
   <g id="line2d_94">
    <path d="M 294.6 358.32103 
L 319.4 358.32103 
" clip-path="url(#pbd9bce9780)" style="fill: none; stroke: #595959"/>
   </g>
   <g id="line2d_95">
    <path d="M 480.6 174.250389 
L 505.4 174.250389 
" clip-path="url(#pbd9bce9780)" style="fill: none; stroke: #595959"/>
   </g>
   <g id="line2d_96">
    <path d="M 133.4 265.729824 
L 158.2 265.729824 
" clip-path="url(#pbd9bce9780)" style="fill: none; stroke: #595959"/>
   </g>
   <g id="line2d_97">
    <path d="M 319.4 177.116903 
L 344.2 177.116903 
" clip-path="url(#pbd9bce9780)" style="fill: none; stroke: #595959"/>
   </g>
   <g id="line2d_98">
    <path d="M 158.2 265.729824 
L 183 265.729824 
" clip-path="url(#pbd9bce9780)" style="fill: none; stroke: #595959"/>
   </g>
   <g id="line2d_99">
    <path d="M 344.2 265.729824 
L 369 265.729824 
" clip-path="url(#pbd9bce9780)" style="fill: none; stroke: #595959"/>
   </g>
   <g id="line2d_100">
    <path d="M 530.2 174.440932 
L 555 174.440932 
" clip-path="url(#pbd9bce9780)" style="fill: none; stroke: #595959"/>
   </g>
   <g id="line2d_101">
    <path d="M 183 174.326529 
L 207.8 174.326529 
" clip-path="url(#pbd9bce9780)" style="fill: none; stroke: #595959"/>
   </g>
   <g id="line2d_102">
    <path d="M 369 173.856157 
L 393.8 173.856157 
" clip-path="url(#pbd9bce9780)" style="fill: none; stroke: #595959"/>
   </g>
   <g id="line2d_103">
    <path d="M 555 174.242246 
L 579.8 174.242246 
" clip-path="url(#pbd9bce9780)" style="fill: none; stroke: #595959"/>
   </g>
   <g id="line2d_104">
    <path d="M 207.8 265.729824 
L 232.6 265.729824 
" clip-path="url(#pbd9bce9780)" style="fill: none; stroke: #595959"/>
   </g>
   <g id="line2d_105">
    <path d="M 393.8 196.133965 
L 418.6 196.133965 
" clip-path="url(#pbd9bce9780)" style="fill: none; stroke: #595959"/>
   </g>
   <g id="line2d_106">
    <path d="M 579.8 174.230566 
L 604.6 174.230566 
" clip-path="url(#pbd9bce9780)" style="fill: none; stroke: #595959"/>
   </g>
   <g id="line2d_107">
    <path d="M 232.6 265.729824 
L 257.4 265.729824 
" clip-path="url(#pbd9bce9780)" style="fill: none; stroke: #595959"/>
   </g>
   <g id="line2d_108">
    <path d="M 418.6 265.729824 
L 443.4 265.729824 
" clip-path="url(#pbd9bce9780)" style="fill: none; stroke: #595959"/>
   </g>
   <g id="line2d_109">
    <path d="M 604.6 68.397552 
L 629.4 68.397552 
" clip-path="url(#pbd9bce9780)" style="fill: none; stroke: #595959"/>
   </g>
   <g id="patch_26">
    <path d="M 90 384.48 
L 90 51.84 
" style="fill: none; stroke: #cccccc; stroke-width: 1.25; stroke-linejoin: miter; stroke-linecap: square"/>
   </g>
   <g id="patch_27">
    <path d="M 648 384.48 
L 648 51.84 
" style="fill: none; stroke: #cccccc; stroke-width: 1.25; stroke-linejoin: miter; stroke-linecap: square"/>
   </g>
   <g id="patch_28">
    <path d="M 90 384.48 
L 648 384.48 
" style="fill: none; stroke: #cccccc; stroke-width: 1.25; stroke-linejoin: miter; stroke-linecap: square"/>
   </g>
   <g id="patch_29">
    <path d="M 90 51.84 
L 648 51.84 
" style="fill: none; stroke: #cccccc; stroke-width: 1.25; stroke-linejoin: miter; stroke-linecap: square"/>
   </g>
   <g id="text_13">
    <!-- KdV, noise=0.5% -->
    <g style="fill: #262626" transform="translate(323.350312 45.84) scale(0.12 -0.12)">
     <defs>
      <path id="ArialMT-4b" d="M 469 0 
L 469 4581 
L 1075 4581 
L 1075 2309 
L 3350 4581 
L 4172 4581 
L 2250 2725 
L 4256 0 
L 3456 0 
L 1825 2319 
L 1075 1588 
L 1075 0 
L 469 0 
z
" transform="scale(0.015625)"/>
      <path id="ArialMT-56" d="M 1803 0 
L 28 4581 
L 684 4581 
L 1875 1253 
Q 2019 853 2116 503 
Q 2222 878 2363 1253 
L 3600 4581 
L 4219 4581 
L 2425 0 
L 1803 0 
z
" transform="scale(0.015625)"/>
      <path id="ArialMT-2c" d="M 569 0 
L 569 641 
L 1209 641 
L 1209 0 
Q 1209 -353 1084 -570 
Q 959 -788 688 -906 
L 531 -666 
Q 709 -588 793 -436 
Q 878 -284 888 0 
L 569 0 
z
" transform="scale(0.015625)"/>
      <path id="ArialMT-73" d="M 197 991 
L 753 1078 
Q 800 744 1014 566 
Q 1228 388 1613 388 
Q 2000 388 2187 545 
Q 2375 703 2375 916 
Q 2375 1106 2209 1216 
Q 2094 1291 1634 1406 
Q 1016 1563 777 1677 
Q 538 1791 414 1992 
Q 291 2194 291 2438 
Q 291 2659 392 2848 
Q 494 3038 669 3163 
Q 800 3259 1026 3326 
Q 1253 3394 1513 3394 
Q 1903 3394 2198 3281 
Q 2494 3169 2634 2976 
Q 2775 2784 2828 2463 
L 2278 2388 
Q 2241 2644 2061 2787 
Q 1881 2931 1553 2931 
Q 1166 2931 1000 2803 
Q 834 2675 834 2503 
Q 834 2394 903 2306 
Q 972 2216 1119 2156 
Q 1203 2125 1616 2013 
Q 2213 1853 2448 1751 
Q 2684 1650 2818 1456 
Q 2953 1263 2953 975 
Q 2953 694 2789 445 
Q 2625 197 2315 61 
Q 2006 -75 1616 -75 
Q 969 -75 630 194 
Q 291 463 197 991 
z
" transform="scale(0.015625)"/>
      <path id="ArialMT-3d" d="M 3381 2694 
L 356 2694 
L 356 3219 
L 3381 3219 
L 3381 2694 
z
M 3381 1303 
L 356 1303 
L 356 1828 
L 3381 1828 
L 3381 1303 
z
" transform="scale(0.015625)"/>
      <path id="ArialMT-25" d="M 372 3481 
Q 372 3972 619 4315 
Q 866 4659 1334 4659 
Q 1766 4659 2048 4351 
Q 2331 4044 2331 3447 
Q 2331 2866 2045 2552 
Q 1759 2238 1341 2238 
Q 925 2238 648 2547 
Q 372 2856 372 3481 
z
M 1350 4272 
Q 1141 4272 1002 4090 
Q 863 3909 863 3425 
Q 863 2984 1003 2804 
Q 1144 2625 1350 2625 
Q 1563 2625 1702 2806 
Q 1841 2988 1841 3469 
Q 1841 3913 1700 4092 
Q 1559 4272 1350 4272 
z
M 1353 -169 
L 3859 4659 
L 4316 4659 
L 1819 -169 
L 1353 -169 
z
M 3334 1075 
Q 3334 1569 3581 1911 
Q 3828 2253 4300 2253 
Q 4731 2253 5014 1945 
Q 5297 1638 5297 1041 
Q 5297 459 5011 145 
Q 4725 -169 4303 -169 
Q 3888 -169 3611 142 
Q 3334 453 3334 1075 
z
M 4316 1866 
Q 4103 1866 3964 1684 
Q 3825 1503 3825 1019 
Q 3825 581 3965 400 
Q 4106 219 4313 219 
Q 4528 219 4667 400 
Q 4806 581 4806 1063 
Q 4806 1506 4665 1686 
Q 4525 1866 4316 1866 
z
" transform="scale(0.015625)"/>
     </defs>
     <use xlink:href="#ArialMT-4b"/>
     <use xlink:href="#ArialMT-64" x="66.699219"/>
     <use xlink:href="#ArialMT-56" x="122.314453"/>
     <use xlink:href="#ArialMT-2c" x="179.888672"/>
     <use xlink:href="#ArialMT-20" x="207.671875"/>
     <use xlink:href="#ArialMT-6e" x="235.455078"/>
     <use xlink:href="#ArialMT-6f" x="291.070312"/>
     <use xlink:href="#ArialMT-69" x="346.685547"/>
     <use xlink:href="#ArialMT-73" x="368.902344"/>
     <use xlink:href="#ArialMT-65" x="418.902344"/>
     <use xlink:href="#ArialMT-3d" x="474.517578"/>
     <use xlink:href="#ArialMT-30" x="532.916016"/>
     <use xlink:href="#ArialMT-2e" x="588.53125"/>
     <use xlink:href="#ArialMT-35" x="616.314453"/>
     <use xlink:href="#ArialMT-25" x="671.929688"/>
    </g>
   </g>
   <g id="legend_1">
    <g id="patch_30">
     <path d="M 551.299688 378.98 
L 640.3 378.98 
Q 642.5 378.98 642.5 376.78 
L 642.5 267.783594 
Q 642.5 265.583594 640.3 265.583594 
L 551.299688 265.583594 
Q 549.099687 265.583594 549.099687 267.783594 
L 549.099687 376.78 
Q 549.099687 378.98 551.299688 378.98 
z
" style="fill: #ffffff; opacity: 0.8; stroke: #cccccc; stroke-linejoin: miter"/>
    </g>
    <g id="text_14">
     <!-- Method -->
     <g style="fill: #262626" transform="translate(575.788906 278.572969) scale(0.12 -0.12)">
      <defs>
       <path id="ArialMT-4d" d="M 475 0 
L 475 4581 
L 1388 4581 
L 2472 1338 
Q 2622 884 2691 659 
Q 2769 909 2934 1394 
L 4031 4581 
L 4847 4581 
L 4847 0 
L 4263 0 
L 4263 3834 
L 2931 0 
L 2384 0 
L 1059 3900 
L 1059 0 
L 475 0 
z
" transform="scale(0.015625)"/>
       <path id="ArialMT-68" d="M 422 0 
L 422 4581 
L 984 4581 
L 984 2938 
Q 1378 3394 1978 3394 
Q 2347 3394 2619 3248 
Q 2891 3103 3008 2847 
Q 3125 2591 3125 2103 
L 3125 0 
L 2563 0 
L 2563 2103 
Q 2563 2525 2380 2717 
Q 2197 2909 1863 2909 
Q 1613 2909 1392 2779 
Q 1172 2650 1078 2428 
Q 984 2206 984 1816 
L 984 0 
L 422 0 
z
" transform="scale(0.015625)"/>
      </defs>
      <use xlink:href="#ArialMT-4d"/>
      <use xlink:href="#ArialMT-65" x="83.300781"/>
      <use xlink:href="#ArialMT-74" x="138.916016"/>
      <use xlink:href="#ArialMT-68" x="166.699219"/>
      <use xlink:href="#ArialMT-6f" x="222.314453"/>
      <use xlink:href="#ArialMT-64" x="277.929688"/>
     </g>
    </g>
    <g id="patch_31">
     <path d="M 553.499687 294.331563 
L 575.499687 294.331563 
L 575.499687 286.631563 
L 553.499687 286.631563 
z
" style="fill: #72b6a1; stroke: #595959; stroke-linejoin: miter"/>
    </g>
    <g id="text_15">
     <!-- Gradient -->
     <g style="fill: #262626" transform="translate(584.299687 294.331563) scale(0.11 -0.11)">
      <defs>
       <path id="ArialMT-47" d="M 2638 1797 
L 2638 2334 
L 4578 2338 
L 4578 638 
Q 4131 281 3656 101 
Q 3181 -78 2681 -78 
Q 2006 -78 1454 211 
Q 903 500 622 1047 
Q 341 1594 341 2269 
Q 341 2938 620 3517 
Q 900 4097 1425 4378 
Q 1950 4659 2634 4659 
Q 3131 4659 3532 4498 
Q 3934 4338 4162 4050 
Q 4391 3763 4509 3300 
L 3963 3150 
Q 3859 3500 3706 3700 
Q 3553 3900 3268 4020 
Q 2984 4141 2638 4141 
Q 2222 4141 1919 4014 
Q 1616 3888 1430 3681 
Q 1244 3475 1141 3228 
Q 966 2803 966 2306 
Q 966 1694 1177 1281 
Q 1388 869 1791 669 
Q 2194 469 2647 469 
Q 3041 469 3416 620 
Q 3791 772 3984 944 
L 3984 1797 
L 2638 1797 
z
" transform="scale(0.015625)"/>
      </defs>
      <use xlink:href="#ArialMT-47"/>
      <use xlink:href="#ArialMT-72" x="77.783203"/>
      <use xlink:href="#ArialMT-61" x="111.083984"/>
      <use xlink:href="#ArialMT-64" x="166.699219"/>
      <use xlink:href="#ArialMT-69" x="222.314453"/>
      <use xlink:href="#ArialMT-65" x="244.53125"/>
      <use xlink:href="#ArialMT-6e" x="300.146484"/>
      <use xlink:href="#ArialMT-74" x="355.761719"/>
     </g>
    </g>
    <g id="patch_32">
     <path d="M 553.499687 309.891406 
L 575.499687 309.891406 
L 575.499687 302.191406 
L 553.499687 302.191406 
z
" style="fill: #e99675; stroke: #595959; stroke-linejoin: miter"/>
    </g>
    <g id="text_16">
     <!-- Adaptive -->
     <g style="fill: #262626" transform="translate(584.299687 309.891406) scale(0.11 -0.11)">
      <defs>
       <path id="ArialMT-41" d="M -9 0 
L 1750 4581 
L 2403 4581 
L 4278 0 
L 3588 0 
L 3053 1388 
L 1138 1388 
L 634 0 
L -9 0 
z
M 1313 1881 
L 2866 1881 
L 2388 3150 
Q 2169 3728 2063 4100 
Q 1975 3659 1816 3225 
L 1313 1881 
z
" transform="scale(0.015625)"/>
       <path id="ArialMT-70" d="M 422 -1272 
L 422 3319 
L 934 3319 
L 934 2888 
Q 1116 3141 1344 3267 
Q 1572 3394 1897 3394 
Q 2322 3394 2647 3175 
Q 2972 2956 3137 2557 
Q 3303 2159 3303 1684 
Q 3303 1175 3120 767 
Q 2938 359 2589 142 
Q 2241 -75 1856 -75 
Q 1575 -75 1351 44 
Q 1128 163 984 344 
L 984 -1272 
L 422 -1272 
z
M 931 1641 
Q 931 1000 1190 694 
Q 1450 388 1819 388 
Q 2194 388 2461 705 
Q 2728 1022 2728 1688 
Q 2728 2322 2467 2637 
Q 2206 2953 1844 2953 
Q 1484 2953 1207 2617 
Q 931 2281 931 1641 
z
" transform="scale(0.015625)"/>
      </defs>
      <use xlink:href="#ArialMT-41"/>
      <use xlink:href="#ArialMT-64" x="66.699219"/>
      <use xlink:href="#ArialMT-61" x="122.314453"/>
      <use xlink:href="#ArialMT-70" x="177.929688"/>
      <use xlink:href="#ArialMT-74" x="233.544922"/>
      <use xlink:href="#ArialMT-69" x="261.328125"/>
      <use xlink:href="#ArialMT-76" x="283.544922"/>
      <use xlink:href="#ArialMT-65" x="333.544922"/>
     </g>
    </g>
    <g id="patch_33">
     <path d="M 553.499687 325.45125 
L 575.499687 325.45125 
L 575.499687 317.75125 
L 553.499687 317.75125 
z
" style="fill: #95a3c3; stroke: #595959; stroke-linejoin: miter"/>
    </g>
    <g id="text_17">
     <!-- Polynomial -->
     <g style="fill: #262626" transform="translate(584.299687 325.45125) scale(0.11 -0.11)">
      <defs>
       <path id="ArialMT-50" d="M 494 0 
L 494 4581 
L 2222 4581 
Q 2678 4581 2919 4538 
Q 3256 4481 3484 4323 
Q 3713 4166 3852 3881 
Q 3991 3597 3991 3256 
Q 3991 2672 3619 2267 
Q 3247 1863 2275 1863 
L 1100 1863 
L 1100 0 
L 494 0 
z
M 1100 2403 
L 2284 2403 
Q 2872 2403 3119 2622 
Q 3366 2841 3366 3238 
Q 3366 3525 3220 3729 
Q 3075 3934 2838 4000 
Q 2684 4041 2272 4041 
L 1100 4041 
L 1100 2403 
z
" transform="scale(0.015625)"/>
       <path id="ArialMT-79" d="M 397 -1278 
L 334 -750 
Q 519 -800 656 -800 
Q 844 -800 956 -737 
Q 1069 -675 1141 -563 
Q 1194 -478 1313 -144 
Q 1328 -97 1363 -6 
L 103 3319 
L 709 3319 
L 1400 1397 
Q 1534 1031 1641 628 
Q 1738 1016 1872 1384 
L 2581 3319 
L 3144 3319 
L 1881 -56 
Q 1678 -603 1566 -809 
Q 1416 -1088 1222 -1217 
Q 1028 -1347 759 -1347 
Q 597 -1347 397 -1278 
z
" transform="scale(0.015625)"/>
      </defs>
      <use xlink:href="#ArialMT-50"/>
      <use xlink:href="#ArialMT-6f" x="66.699219"/>
      <use xlink:href="#ArialMT-6c" x="122.314453"/>
      <use xlink:href="#ArialMT-79" x="144.53125"/>
      <use xlink:href="#ArialMT-6e" x="194.53125"/>
      <use xlink:href="#ArialMT-6f" x="250.146484"/>
      <use xlink:href="#ArialMT-6d" x="305.761719"/>
      <use xlink:href="#ArialMT-69" x="389.0625"/>
      <use xlink:href="#ArialMT-61" x="411.279297"/>
      <use xlink:href="#ArialMT-6c" x="466.894531"/>
     </g>
    </g>
    <g id="patch_34">
     <path d="M 553.499687 341.274063 
L 575.499687 341.274063 
L 575.499687 333.574063 
L 553.499687 333.574063 
z
" style="fill: #db96c0; stroke: #595959; stroke-linejoin: miter"/>
    </g>
    <g id="text_18">
     <!-- Spectral -->
     <g style="fill: #262626" transform="translate(584.299687 341.274063) scale(0.11 -0.11)">
      <defs>
       <path id="ArialMT-53" d="M 288 1472 
L 859 1522 
Q 900 1178 1048 958 
Q 1197 738 1509 602 
Q 1822 466 2213 466 
Q 2559 466 2825 569 
Q 3091 672 3220 851 
Q 3350 1031 3350 1244 
Q 3350 1459 3225 1620 
Q 3100 1781 2813 1891 
Q 2628 1963 1997 2114 
Q 1366 2266 1113 2400 
Q 784 2572 623 2826 
Q 463 3081 463 3397 
Q 463 3744 659 4045 
Q 856 4347 1234 4503 
Q 1613 4659 2075 4659 
Q 2584 4659 2973 4495 
Q 3363 4331 3572 4012 
Q 3781 3694 3797 3291 
L 3216 3247 
Q 3169 3681 2898 3903 
Q 2628 4125 2100 4125 
Q 1550 4125 1298 3923 
Q 1047 3722 1047 3438 
Q 1047 3191 1225 3031 
Q 1400 2872 2139 2705 
Q 2878 2538 3153 2413 
Q 3553 2228 3743 1945 
Q 3934 1663 3934 1294 
Q 3934 928 3725 604 
Q 3516 281 3123 101 
Q 2731 -78 2241 -78 
Q 1619 -78 1198 103 
Q 778 284 539 648 
Q 300 1013 288 1472 
z
" transform="scale(0.015625)"/>
      </defs>
      <use xlink:href="#ArialMT-53"/>
      <use xlink:href="#ArialMT-70" x="66.699219"/>
      <use xlink:href="#ArialMT-65" x="122.314453"/>
      <use xlink:href="#ArialMT-63" x="177.929688"/>
      <use xlink:href="#ArialMT-74" x="227.929688"/>
      <use xlink:href="#ArialMT-72" x="255.712891"/>
      <use xlink:href="#ArialMT-61" x="289.013672"/>
      <use xlink:href="#ArialMT-6c" x="344.628906"/>
     </g>
    </g>
    <g id="patch_35">
     <path d="M 553.499687 356.833906 
L 575.499687 356.833906 
L 575.499687 349.133906 
L 553.499687 349.133906 
z
" style="fill: #a2c865; stroke: #595959; stroke-linejoin: miter"/>
    </g>
    <g id="text_19">
     <!-- Inverse -->
     <g style="fill: #262626" transform="translate(584.299687 356.833906) scale(0.11 -0.11)">
      <defs>
       <path id="ArialMT-49" d="M 597 0 
L 597 4581 
L 1203 4581 
L 1203 0 
L 597 0 
z
" transform="scale(0.015625)"/>
      </defs>
      <use xlink:href="#ArialMT-49"/>
      <use xlink:href="#ArialMT-6e" x="27.783203"/>
      <use xlink:href="#ArialMT-76" x="83.398438"/>
      <use xlink:href="#ArialMT-65" x="133.398438"/>
      <use xlink:href="#ArialMT-72" x="189.013672"/>
      <use xlink:href="#ArialMT-73" x="222.314453"/>
      <use xlink:href="#ArialMT-65" x="272.314453"/>
     </g>
    </g>
    <g id="patch_36">
     <path d="M 553.499687 372.39375 
L 575.499687 372.39375 
L 575.499687 364.69375 
L 553.499687 364.69375 
z
" style="fill: #e5c849; stroke: #595959; stroke-linejoin: miter"/>
    </g>
    <g id="text_20">
     <!-- Total -->
     <g style="fill: #262626" transform="translate(584.299687 372.39375) scale(0.11 -0.11)">
      <use xlink:href="#ArialMT-54"/>
      <use xlink:href="#ArialMT-6f" x="49.958984"/>
      <use xlink:href="#ArialMT-74" x="105.574219"/>
      <use xlink:href="#ArialMT-61" x="133.357422"/>
      <use xlink:href="#ArialMT-6c" x="188.972656"/>
     </g>
    </g>
   </g>
  </g>
 </g>
 <defs>
  <clipPath id="pbd9bce9780">
   <rect x="90" y="51.84" width="558" height="332.64"/>
  </clipPath>
 </defs>
</svg>
